<svg xmlns="http://www.w3.org/2000/svg" width="76" height="76" viewBox="0 0 76 76"><defs><style>.a,.b{fill:#fff;}.a{opacity:0.2;}</style></defs><g transform="translate(-1244 -841)"><rect class="a" width="76" height="76" rx="9" transform="translate(1244 841)"/><g transform="translate(1264.205 861.447)"><path class="b" d="M8.75,17.612V24.49a1.112,1.112,0,0,0,2.008.658l4.023-5.475Z" transform="translate(4.225 8.505)"/><path class="b" d="M35.122.206a1.113,1.113,0,0,0-1.16-.08L.6,17.55a1.113,1.113,0,0,0,.154,2.039l9.276,3.17L29.781,5.869,14.5,24.285,30.04,29.6a1.138,1.138,0,0,0,.359.059,1.111,1.111,0,0,0,1.1-.948L35.578,1.277A1.114,1.114,0,0,0,35.122.206Z" transform="translate(0)"/></g></g></svg>