<svg xmlns="http://www.w3.org/2000/svg" width="20.186" height="16.046" viewBox="0 0 20.186 16.046"><defs><style>.a{fill:#fff;}</style></defs><g transform="translate(0 -52.499)"><g transform="translate(0 52.499)"><g transform="translate(0 0)"><path class="a" d="M205.456,123.729a.789.789,0,0,0-1-.094c-1.18.8-7.1,4.848-7.734,5.484a2.366,2.366,0,0,0,3.345,3.345c.636-.636,4.68-6.554,5.484-7.734A.789.789,0,0,0,205.456,123.729Zm-6.505,7.62a.789.789,0,0,1-1.115-1.115c.247-.244,1.927-1.443,3.995-2.879C200.393,129.422,199.195,131.1,198.95,131.35Z" transform="translate(-188.3 -120.699)"/><path class="a" d="M3.636,66.26l-.973.475a8.476,8.476,0,0,1-.531-7.166l1.115.535a.789.789,0,1,0,.682-1.422l-1.1-.528A8.527,8.527,0,0,1,9.3,54.112V55.3a.789.789,0,1,0,1.577,0V54.112a8.419,8.419,0,0,1,2.711.714.788.788,0,1,0,.649-1.437A10.085,10.085,0,0,0,1.71,68.2a.788.788,0,0,0,1,.27l1.616-.789a.789.789,0,1,0-.691-1.417Z" transform="translate(0 -52.499)"/><path class="a" d="M393.915,191.958a.788.788,0,1,0-1.437.649,8.488,8.488,0,0,1-.339,7.648l-1.016-.484a.789.789,0,1,0-.678,1.424l1.656.789a.788.788,0,0,0,.995-.274,10.069,10.069,0,0,0,.82-9.752Z" transform="translate(-374.619 -186.014)"/></g></g></g></svg>