<svg xmlns="http://www.w3.org/2000/svg" width="21.217" height="21.217" viewBox="0 0 21.217 21.217">
  <path id="Icon_awesome-download" data-name="Icon awesome-download" d="M8.951,0h3.315a.992.992,0,0,1,.995.995V7.956h3.634a.827.827,0,0,1,.584,1.413l-6.3,6.307a.8.8,0,0,1-1.131,0L3.734,9.369a.827.827,0,0,1,.584-1.413H7.956V.995A.992.992,0,0,1,8.951,0ZM21.217,15.581v4.641a.992.992,0,0,1-.995.995H.995A.992.992,0,0,1,0,20.222V15.581a.992.992,0,0,1,.995-.995H7.074L9.1,16.617a2.123,2.123,0,0,0,3.008,0l2.031-2.031h6.079A.992.992,0,0,1,21.217,15.581Zm-5.138,3.647a.829.829,0,1,0-.829.829A.831.831,0,0,0,16.078,19.228Zm2.652,0a.829.829,0,1,0-.829.829A.831.831,0,0,0,18.73,19.228Z" fill="#fff"/>
</svg>
