<svg id="Group_2100" data-name="Group 2100" xmlns="http://www.w3.org/2000/svg" width="7.2" height="7.2" viewBox="0 0 7.2 7.2">
  <path id="Path_960" data-name="Path 960" d="M0,0H7.2V7.2H0Z" fill="none"/>
  <path id="Path_961" data-name="Path 961" d="M4.75,7.5A2.75,2.75,0,1,1,7.5,4.75,2.75,2.75,0,0,1,4.75,7.5ZM6.5,5.837V5.808c0-.254,0-.369-.179-.472q-.086-.049-.177-.089a.5.5,0,0,1-.258-.208l-.032-.047a.352.352,0,0,0-.424-.207c-.513.081-.551.172-.573.324l0,.025c-.033.223-.039.3.054.4a3.384,3.384,0,0,1,.62.782.917.917,0,0,1,.056.528,2.251,2.251,0,0,0,.867-.615A1.364,1.364,0,0,0,6.5,5.837ZM4.75,2.5A2.24,2.24,0,0,0,3.129,3.2a.347.347,0,0,1,.12.147.876.876,0,0,1,.056.37.6.6,0,0,0,.029.238c.04.085.211.121.362.152.054.012.11.023.16.037a.754.754,0,0,1,.333.264.767.767,0,0,0,.116.118.28.28,0,0,0,.08-.137.161.161,0,0,0-.012-.143.8.8,0,0,1-.1-.66c.075-.2.309-.188.48-.177a.983.983,0,0,0,.169,0c.171-.021.224-.282.261-.333A2.445,2.445,0,0,1,5.662,2.7,2.238,2.238,0,0,0,4.75,2.5Z" transform="translate(-1.15 -1.15)" fill="#4f2729"/>
</svg>
