<svg id="Group_2092" data-name="Group 2092" xmlns="http://www.w3.org/2000/svg" width="7.2" height="7.2" viewBox="0 0 7.2 7.2">
  <path id="Path_956" data-name="Path 956" d="M0,0H7.2V7.2H0Z" fill="none"/>
  <path id="Path_957" data-name="Path 957" d="M7.651,6.468v.914a.258.258,0,0,1-.24.258c-.113.008-.205.012-.276.012A4.134,4.134,0,0,1,3,3.517q0-.107.012-.276A.258.258,0,0,1,3.27,3h.914a.129.129,0,0,1,.129.116c.006.059.011.107.017.143a3.592,3.592,0,0,0,.312,1.034.118.118,0,0,1-.038.147l-.558.4A3.371,3.371,0,0,0,5.814,6.606l.4-.557a.119.119,0,0,1,.148-.038,3.592,3.592,0,0,0,1.034.311c.036.005.083.011.142.017a.129.129,0,0,1,.116.129Z" transform="translate(-1.725 -1.725)" fill="#4f2729"/>
</svg>
