<svg xmlns="http://www.w3.org/2000/svg" width="14.732" height="16.837" viewBox="0 0 14.732 16.837"><defs><style>.a{fill:#001426;}</style></defs><path class="a" d="M13.956,7.305,12.888,6.238,7.548,11.577a2.265,2.265,0,0,0,3.2,3.2l6.409-6.408a3.776,3.776,0,1,0-5.34-5.339L5.092,9.762l-.014.014a5.266,5.266,0,0,0,7.448,7.447l.013-.014h0l4.593-4.592-1.069-1.067-4.593,4.592-.014.014a3.756,3.756,0,0,1-5.312-5.31l.015-.014h0L12.888,4.1a2.266,2.266,0,0,1,3.2,3.2L9.684,13.713a.755.755,0,0,1-1.068-1.067l5.34-5.34Z" transform="translate(-3.535 -1.928)"/></svg>