<svg xmlns="http://www.w3.org/2000/svg" width="16.081" height="16.081" viewBox="0 0 16.081 16.081"><defs><style>.a{fill:#fff;}</style></defs><g transform="translate(-3.375 -3.375)"><path class="a" d="M11.415,5A6.414,6.414,0,1,1,6.877,6.877,6.39,6.39,0,0,1,11.415,5m0-1.624a8.04,8.04,0,1,0,8.04,8.04,8.039,8.039,0,0,0-8.04-8.04Z" transform="translate(0 0)"/><g transform="translate(8.199 6.583)"><path class="a" d="M16.523,23.836h1.624v1.624H16.523Z" transform="translate(-14.119 -15.796)"/><path class="a" d="M16.17,16.44H14.562c0-2.59,2.412-2.4,2.412-4.012a1.615,1.615,0,0,0-1.608-1.612,1.631,1.631,0,0,0-1.608,1.6H12.15a3.216,3.216,0,0,1,6.432,0C18.582,14.433,16.17,14.661,16.17,16.44Z" transform="translate(-12.15 -9.211)"/></g></g></svg>