<svg xmlns="http://www.w3.org/2000/svg" width="21.17" height="17.201" viewBox="0 0 21.17 17.201"><defs><style>.a{fill:#001426;}</style></defs><path class="a" d="M1.985,3.375A1.985,1.985,0,1,0,3.969,5.36,1.985,1.985,0,0,0,1.985,3.375Zm0,6.616a1.985,1.985,0,1,0,1.985,1.985A1.985,1.985,0,0,0,1.985,9.991Zm0,6.616a1.985,1.985,0,1,0,1.985,1.985,1.985,1.985,0,0,0-1.985-1.985Zm18.524.662H7.277a.662.662,0,0,0-.662.662v1.323a.662.662,0,0,0,.662.662H20.509a.662.662,0,0,0,.662-.662V17.93A.662.662,0,0,0,20.509,17.268Zm0-13.232H7.277a.662.662,0,0,0-.662.662V6.021a.662.662,0,0,0,.662.662H20.509a.662.662,0,0,0,.662-.662V4.7A.662.662,0,0,0,20.509,4.037Zm0,6.616H7.277a.662.662,0,0,0-.662.662v1.323a.662.662,0,0,0,.662.662H20.509a.662.662,0,0,0,.662-.662V11.314A.662.662,0,0,0,20.509,10.652Z" transform="translate(0 -3.375)"/></svg>