<svg xmlns="http://www.w3.org/2000/svg" width="11.673" height="12" viewBox="0 0 11.673 12"><defs><style>.a{fill:#001426;}</style></defs><path class="a" d="M13.7,9.588a4.137,4.137,0,0,0,0-1.176l1.266-.99a.3.3,0,0,0,.072-.384l-1.2-2.076a.3.3,0,0,0-.366-.132l-1.494.6a4.384,4.384,0,0,0-1.014-.588l-.228-1.59A.293.293,0,0,0,10.444,3h-2.4a.293.293,0,0,0-.294.252l-.228,1.59a4.61,4.61,0,0,0-1.014.588l-1.494-.6a.293.293,0,0,0-.366.132l-1.2,2.076a.3.3,0,0,0,.072.384l1.266.99a4.137,4.137,0,0,0,0,1.176l-1.266.99a.3.3,0,0,0-.072.384l1.2,2.076a.3.3,0,0,0,.366.132l1.494-.6a4.384,4.384,0,0,0,1.014.588l.228,1.59A.293.293,0,0,0,8.044,15h2.4a.293.293,0,0,0,.294-.252l.228-1.59a4.61,4.61,0,0,0,1.014-.588l1.494.6a.293.293,0,0,0,.366-.132l1.2-2.076a.3.3,0,0,0-.072-.384L13.7,9.588ZM9.244,11.1a2.1,2.1,0,1,1,2.1-2.1A2.1,2.1,0,0,1,9.244,11.1Z" transform="translate(-3.406 -3)"/></svg>