<svg xmlns="http://www.w3.org/2000/svg" width="13.286" height="15.531" viewBox="0 0 13.286 15.531"><defs><style>.a{fill:#fff;}</style></defs><path class="a" d="M24.107,19.656a2.192,2.192,0,0,1,.425.637,1.817,1.817,0,0,1,.152.758v10.01a.726.726,0,0,1-.243.576.786.786,0,0,1-.576.243H12.216a.785.785,0,0,1-.576-.243.725.725,0,0,1-.243-.576V17.169a.725.725,0,0,1,.243-.576.786.786,0,0,1,.576-.243h7.766a1.805,1.805,0,0,1,.758.182,2.283,2.283,0,0,1,.667.394Zm-.516,11.1V21.9h-3.61a.785.785,0,0,1-.576-.243.761.761,0,0,1-.243-.607v-3.58H12.49V30.758h11.1ZM14.7,23.3a.293.293,0,0,1,.091-.212.261.261,0,0,1,.182-.091H21.1a.263.263,0,0,1,.182.091.292.292,0,0,1,.091.212v.546q0,.152-.091.182a.263.263,0,0,1-.182.091H14.977a.263.263,0,0,1-.182-.091q-.091-.03-.091-.182V23.3Zm6.4,1.941a.248.248,0,0,1,.182.061.292.292,0,0,1,.091.212v.546a.292.292,0,0,1-.091.212.462.462,0,0,1-.182.061H14.977a.458.458,0,0,1-.182-.061.291.291,0,0,1-.091-.212v-.546a.293.293,0,0,1,.091-.212.247.247,0,0,1,.182-.061Zm0,2.214a.467.467,0,0,1,.182.061.292.292,0,0,1,.091.212v.546a.292.292,0,0,1-.091.212.462.462,0,0,1-.182.061H14.977a.458.458,0,0,1-.182-.061.291.291,0,0,1-.091-.212v-.546a.293.293,0,0,1,.091-.212.463.463,0,0,1,.182-.061Zm-.849-9.919v3.246h3.276a.556.556,0,0,0-.212-.334l-2.7-2.73a.994.994,0,0,0-.364-.182Z" transform="translate(-11.398 -16.35)"/></svg>