<svg xmlns="http://www.w3.org/2000/svg" width="16.499" height="16.499" viewBox="0 0 16.499 16.499"><defs><style>.a{fill:#fff;}</style></defs><path class="a" d="M13.76,4.111V0H2.739V4.111L0,6.154v8.412A1.936,1.936,0,0,0,1.934,16.5H14.566A1.936,1.936,0,0,0,16.5,14.566V6.154Zm.961,2.325-.961.715V5.719Zm-2.25-5.147v6.82L8.25,11.249,4.028,8.109V1.289ZM2.739,7.15l-.961-.715.961-.717Zm11.827,8.06H1.934a.645.645,0,0,1-.645-.645V7.678L8.25,12.855,15.21,7.678v6.888A.645.645,0,0,1,14.566,15.21ZM7.412,4.608H6.123a2.083,2.083,0,0,1,.694-1.549A2.162,2.162,0,0,1,8.5,2.527,2.12,2.12,0,0,1,10.365,4.38,2.321,2.321,0,0,1,9.55,6.287c-.1.1-.191.186-.272.262-.371.351-.384.384-.384.576v.028H7.605V7.126a1.9,1.9,0,0,1,.787-1.513c.079-.074.16-.151.248-.239.34-.338.472-.593.444-.852a.822.822,0,0,0-.729-.714.86.86,0,0,0-.678.211A.782.782,0,0,0,7.412,4.608Zm.193,3.545H8.894V9.442H7.605Z"/></svg>