<svg xmlns="http://www.w3.org/2000/svg" width="16.372" height="17.083" viewBox="0 0 16.372 17.083"><defs><style>.a{fill:#fff;}</style></defs><path class="a" d="M14.646,0H4.059A1.8,1.8,0,0,0,2.393,1.9L2.324,12.678H.258A.3.3,0,0,0,0,13V14.48a2.464,2.464,0,0,0,2.121,2.585v.018h8.915v-.02c.066,0,.106.02.152.02h.006a2.439,2.439,0,0,0,2.228-2.6V5.056h2.691a.3.3,0,0,0,.258-.322V2.013A1.892,1.892,0,0,0,14.646,0ZM2.237,16.47h0A1.87,1.87,0,0,1,.53,14.48V13.291H8.948v1.183a2.813,2.813,0,0,0,.655,1.84,1.031,1.031,0,0,1,.14.155Zm10.655-1.991a1.864,1.864,0,0,1-1.7,1.991h-.005a1.875,1.875,0,0,1-1.71-2V13a.3.3,0,0,0-.265-.319H2.855L2.923,1.906A1.224,1.224,0,0,1,4.059.613h9.335a2.269,2.269,0,0,0-.5,1.409Zm2.95-12.461V4.443H13.422V2.021A1.335,1.335,0,0,1,14.638.613h.007a1.316,1.316,0,0,1,1.2,1.4Zm0,0"/><path class="a" d="M163.742,57.873l1.237.846a.236.236,0,0,0,.268,0l1.233-.845a1.863,1.863,0,0,0,.745-1.421V54.741a.235.235,0,0,0-.128-.215l-1.883-.926a.236.236,0,0,0-.21,0l-1.88.924a.234.234,0,0,0-.128.215v1.713A1.863,1.863,0,0,0,163.742,57.873Zm-.266-2.985,1.634-.806,1.634.809v1.562a1.382,1.382,0,0,1-.536,1.025l-1.1.753-1.1-.753a1.382,1.382,0,0,1-.534-1.025Zm0,0" transform="translate(-157.389 -51.968)"/><path class="a" d="M202.094,117.493a.24.24,0,0,0,.17.072h0a.24.24,0,0,0,.17-.071l.954-.955a.24.24,0,0,0-.339-.34l-.784.784-.313-.316a.24.24,0,1,0-.341.338Zm0,0" transform="translate(-194.767 -111.565)"/><path class="a" d="M139,248H133.24a.24.24,0,1,0,0,.48H139a.24.24,0,1,0,0-.48Zm0,0" transform="translate(-128.287 -238.424)"/><path class="a" d="M139,285H133.24a.24.24,0,1,0,0,.48H139a.24.24,0,1,0,0-.48Zm0,0" transform="translate(-128.287 -273.995)"/></svg>