<svg xmlns="http://www.w3.org/2000/svg" width="14" height="23.893" viewBox="0 0 14 23.893"><defs><style>.a{fill:#fff;}</style></defs><g transform="translate(-106)"><g transform="translate(106)"><path class="a" d="M119.758,18.154a1.524,1.524,0,0,0-.934-1.4,1.521,1.521,0,0,0-1.347-2.227h-2.023V11.94A6.067,6.067,0,1,0,111.525.5a.467.467,0,0,0,.371.856,5.13,5.13,0,1,1-2.675,2.675.467.467,0,1,0-.856-.371,6.07,6.07,0,0,0,4.048,8.282v2.109h-.077a4.911,4.911,0,0,0-3.594,1.564h-2.274a.467.467,0,0,0-.467.467l0,5.782a.467.467,0,0,0,.467.466h2.273a4.916,4.916,0,0,0,3.592,1.564h4.783a1.521,1.521,0,0,0,1.34-2.241,1.52,1.52,0,0,0,.638-2.242,1.521,1.521,0,0,0,.663-1.255Zm-5.825-6.021c.2,0,.394-.01.588-.029v2.419h-1.176V12.1q.29.028.588.029Zm4.3,6.609h-.4a.467.467,0,1,0,0,.933.588.588,0,0,1,0,1.176h-.719a.467.467,0,0,0,0,.933.588.588,0,1,1,0,1.176h-4.783a3.987,3.987,0,0,1-3.029-1.4.467.467,0,0,0-.354-.163h-2.015l0-4.849h2.016a.467.467,0,0,0,.355-.164,3.98,3.98,0,0,1,3.03-1.4h.077v.008a.467.467,0,0,0,.467.467h4.6a.588.588,0,1,1,0,1.176.467.467,0,1,0,0,.933h.76a.588.588,0,0,1,0,1.176Z" transform="translate(-106)"/><path class="a" d="M210.265,80.278a1.4,1.4,0,0,0,1.98,0L214.522,78a1.4,1.4,0,1,0-1.98-1.98l-1.288,1.288-.219-.219a1.4,1.4,0,0,0-1.98,1.98Zm-.549-2.529a.467.467,0,0,1,.66,0l.549.549a.467.467,0,0,0,.66,0L213.2,76.68a.467.467,0,1,1,.66.66l-2.278,2.278a.467.467,0,0,1-.66,0l-1.209-1.209a.466.466,0,0,1,0-.66Z" transform="translate(-203.856 -72.082)"/><path class="a" d="M181.614,36.076a.467.467,0,1,0-.33-.8h0a.467.467,0,0,0,.33.8Z" transform="translate(-177.641 -33.502)"/></g></g></svg>