<svg id="Transas_Logo" data-name="Transas Logo" xmlns="http://www.w3.org/2000/svg" xmlns:xlink="http://www.w3.org/1999/xlink" width="150.271" height="41.906" viewBox="0 0 150.271 41.906">
  <defs>
    <clipPath id="clip-path">
      <rect id="Rectangle_3" data-name="Rectangle 3" width="148.232" height="26.772" fill="#ec3435"/>
    </clipPath>
  </defs>
  <g id="Group_639" data-name="Group 639" transform="translate(1.69)" clip-path="url(#clip-path)">
    <path id="Path_771" data-name="Path 771" d="M28,1.2V6.943H23.12V21.924H17.2V6.943H12.314V1.2ZM40.652,21.894l-3.286-6.513h-1.48v6.513H29.964V1.17h8.29a8.056,8.056,0,0,1,5.625,2.013,6.721,6.721,0,0,1,2.22,5.27,6.595,6.595,0,0,1-3.2,5.714l4.086,7.727ZM35.886,6.617v3.849h2.25a1.975,1.975,0,0,0,1.48-.474,1.808,1.808,0,0,0,.563-1.421,1.808,1.808,0,0,0-.563-1.421,2,2,0,0,0-1.48-.533Zm25.34,15.307-.711-2.665h-5.98l-.711,2.665H47.459L54.061,1.2h6.928l6.6,20.725Zm-5.418-7.4h3.434L57.525,8.157ZM80.22,1.2h5.921V21.924H81.4L74.891,12.45v9.474H68.969V1.2h4.737l6.513,9.474ZM96.453,22.4a10.519,10.519,0,0,1-5.625-1.391,6.926,6.926,0,0,1-3.02-3.819l5.063-2.931A3.743,3.743,0,0,0,96.6,16.891q2.012,0,2.013-1.066a.981.981,0,0,0-.148-.533,1.189,1.189,0,0,0-.563-.414,5.715,5.715,0,0,0-.74-.266,11.033,11.033,0,0,0-1.066-.326q-.769-.207-1.154-.326Q88.755,12.095,88.755,7.3A6.1,6.1,0,0,1,90.8,2.591,7.791,7.791,0,0,1,96.216.726a8.974,8.974,0,0,1,4.708,1.243A7.316,7.316,0,0,1,104,5.552L99.088,8.423a2.954,2.954,0,0,0-2.843-2.191,1.881,1.881,0,0,0-1.184.326.927.927,0,0,0-.385.77,1.1,1.1,0,0,0,.681,1.007,17.928,17.928,0,0,0,2.694.918,21.947,21.947,0,0,1,2.427.859,9.793,9.793,0,0,1,1.984,1.125A4.3,4.3,0,0,1,104,13.1a6.175,6.175,0,0,1,.532,2.665,5.927,5.927,0,0,1-2.19,4.915A9.221,9.221,0,0,1,96.453,22.4Zm21.748-.474-.71-2.665H111.51l-.71,2.665h-6.365l6.6-20.725h6.927l6.6,20.725Zm-5.418-7.4h3.434L114.5,8.157ZM132.971,22.4a10.519,10.519,0,0,1-5.625-1.391,6.923,6.923,0,0,1-3.019-3.819l5.063-2.931a3.743,3.743,0,0,0,3.73,2.635q2.012,0,2.013-1.066a.981.981,0,0,0-.148-.533,1.191,1.191,0,0,0-.562-.414,5.763,5.763,0,0,0-.74-.266,11.118,11.118,0,0,0-1.066-.326q-.77-.207-1.155-.326-6.188-1.865-6.188-6.661a6.1,6.1,0,0,1,2.043-4.707A7.789,7.789,0,0,1,132.734.726a8.969,8.969,0,0,1,4.708,1.243,7.316,7.316,0,0,1,3.079,3.582l-4.914,2.872a2.953,2.953,0,0,0-2.842-2.191,1.881,1.881,0,0,0-1.185.326.928.928,0,0,0-.384.77,1.1,1.1,0,0,0,.681,1.007,18.007,18.007,0,0,0,2.694.918,21.9,21.9,0,0,1,2.428.859,9.818,9.818,0,0,1,1.984,1.125,4.3,4.3,0,0,1,1.539,1.865,6.161,6.161,0,0,1,.533,2.665,5.928,5.928,0,0,1-2.191,4.915A9.221,9.221,0,0,1,132.971,22.4Z" transform="translate(-2.576 -0.041)" fill="#ec3435"/>
  </g>
  <path id="Path_772" data-name="Path 772" d="M7.387,41.007h.74L4.546,31.754h-.74L.21,41.007H.95l.9-2.353h4.64ZM2.113,37.993l2.062-5.38,2.062,5.38Zm17.8,3.159c1.837,0,3.04-1,3.04-2.538,0-1.6-1.428-2.115-3.067-2.657-1.322-.436-2.26-.78-2.26-1.89a1.852,1.852,0,0,1,2.088-1.784,2.432,2.432,0,0,1,2.379,1.6l.595-.33a3.107,3.107,0,0,0-2.974-1.943,2.551,2.551,0,0,0-2.8,2.485c0,1.613,1.388,2.049,2.934,2.551,1.414.449,2.392.872,2.392,1.983,0,1.057-.78,1.851-2.326,1.851a2.626,2.626,0,0,1-2.776-1.864l-.608.357A3.313,3.313,0,0,0,19.918,41.152ZM29.494,34.4v3.49c0,1.784-1.018,2.63-2.313,2.63a1.824,1.824,0,0,1-1.943-2.009V34.4h-.674v4.111a2.436,2.436,0,0,0,2.564,2.644,2.489,2.489,0,0,0,2.366-1.4v1.256h.661V34.4Zm6.394-.145a3.132,3.132,0,0,0-2.842,1.679V31.754h-.661v9.253h.661V39.474a3.132,3.132,0,0,0,2.842,1.679,3.45,3.45,0,0,0,0-6.9Zm-.04,6.265a2.815,2.815,0,1,1,2.8-2.815A2.782,2.782,0,0,1,35.849,40.518Zm5.566-4.388c0-.793.727-1.243,1.586-1.243a1.727,1.727,0,0,1,1.692,1l.555-.317A2.335,2.335,0,0,0,43,34.253a2.017,2.017,0,0,0-2.247,1.877c0,2.379,4.005,1.348,4.005,3.146,0,.833-.78,1.243-1.705,1.243a1.886,1.886,0,0,1-1.943-1.163l-.568.33a2.487,2.487,0,0,0,2.511,1.467c1.414,0,2.366-.793,2.366-1.877C45.42,36.857,41.414,37.9,41.414,36.13ZM47.474,32.8a.522.522,0,1,0-.529-.529A.53.53,0,0,0,47.474,32.8Zm-.33,8.208H47.8V34.4h-.661Zm8.716-9.253v4.177a3.132,3.132,0,0,0-2.842-1.679,3.45,3.45,0,0,0,0,6.9,3.132,3.132,0,0,0,2.842-1.679v1.533h.661V31.754Zm-2.8,8.764a2.815,2.815,0,1,1,2.8-2.815A2.782,2.782,0,0,1,53.057,40.518ZM59.069,32.8a.522.522,0,1,0-.529-.529A.53.53,0,0,0,59.069,32.8Zm-.33,8.208H59.4V34.4h-.661Zm8.7-6.609v1.494A3.178,3.178,0,0,0,64.6,34.253a3.45,3.45,0,0,0,0,6.9,3.178,3.178,0,0,0,2.842-1.639v1.494h.674V34.4Zm-2.789,6.12A2.816,2.816,0,1,1,67.441,37.7,2.782,2.782,0,0,1,64.652,40.518Zm6.342-4.825V34.4h-.661v6.609h.661V37.332A2.139,2.139,0,0,1,73.2,34.94v-.634A2.224,2.224,0,0,0,70.994,35.693Zm8.7-1.3L77.4,40.28,74.727,34.4h-.714l3.04,6.728-.145.357c-.41.965-1.084,1.626-1.969,1.547v.621a2.766,2.766,0,0,0,2.617-2.036L80.411,34.4Zm8.829,6.754A3.45,3.45,0,1,0,85.05,37.7,3.422,3.422,0,0,0,88.526,41.152Zm0-.634A2.816,2.816,0,1,1,91.315,37.7,2.782,2.782,0,0,1,88.526,40.518Zm8.1-8.275v-.634a2.206,2.206,0,0,0-2.643,2.432V34.4H92.85v.648h1.137v5.961h.674V35.046H96.63V34.4H94.66v-.357C94.66,32.759,95.282,32.138,96.63,32.243Zm7.027,8.764h.846l2.6-8.341,2.591,8.341h.846l2.683-9.253h-.74l-2.379,8.314-2.591-8.314h-.833l-2.578,8.314-2.392-8.314h-.74Zm12.279-7.627a.483.483,0,0,0,0-.965.483.483,0,1,0,0,.965Zm2.379,0a.483.483,0,0,0,0-.965.483.483,0,1,0,0,.965ZM119.9,34.4v1.494a3.178,3.178,0,0,0-2.842-1.639,3.45,3.45,0,0,0,0,6.9,3.178,3.178,0,0,0,2.842-1.639v1.494h.674V34.4Zm-2.789,6.12A2.816,2.816,0,1,1,119.9,37.7,2.782,2.782,0,0,1,117.112,40.518Zm6.342-4.825V34.4h-.661v6.609h.661V37.332a2.139,2.139,0,0,1,2.207-2.392v-.634A2.224,2.224,0,0,0,123.454,35.693Zm7.211-.648V34.4H128.7V32.547l-.674.2V34.4h-1.454v.648h1.454v4.3c0,1.507.912,1.93,2.644,1.665v-.595c-1.348.119-1.97.093-1.97-1.071v-4.3Zm1.824,1.084c0-.793.727-1.243,1.586-1.243a1.727,1.727,0,0,1,1.692,1l.555-.317a2.336,2.336,0,0,0-2.247-1.322,2.017,2.017,0,0,0-2.247,1.877c0,2.379,4.005,1.348,4.005,3.146,0,.833-.78,1.243-1.705,1.243a1.886,1.886,0,0,1-1.943-1.163l-.568.33a2.487,2.487,0,0,0,2.511,1.467c1.414,0,2.366-.793,2.366-1.877C136.494,36.857,132.489,37.9,132.489,36.13Zm6.059-3.331a.522.522,0,1,0-.529-.529A.53.53,0,0,0,138.547,32.8Zm-.33,8.208h.661V34.4h-.661Zm2.887,0h.661V31.358H141.1Zm4.737-7.627a.483.483,0,0,0,0-.965.483.483,0,1,0,0,.965Zm2.379,0a.483.483,0,0,0,0-.965.483.483,0,1,0,0,.965Zm1.586,1.018v1.494a3.178,3.178,0,0,0-2.842-1.639,3.45,3.45,0,0,0,0,6.9,3.178,3.178,0,0,0,2.842-1.639v1.494h.674V34.4Zm-2.789,6.12a2.816,2.816,0,1,1,2.789-2.815A2.782,2.782,0,0,1,147.017,40.518Z" transform="translate(-0.21 -1.751)" fill="#ec3435"/>
</svg>
