<svg xmlns="http://www.w3.org/2000/svg" width="247" height="134.933" viewBox="0 0 247 134.933"><defs><style>.a,.g{fill:#f2f2f2;}.b{fill:#2f2e41;}.c{fill:#ffb7b7;}.d{fill:#001426;}.e{fill:#3f3d56;}.f{fill:#fff;}.g,.i{isolation:isolate;}.h{fill:#f1f1f1;}.i{opacity:0.1;}.j{fill:#cbcbcb;}</style></defs><g transform="translate(0 0.042)"><path class="a" d="M196.964,633.858c-5.263,4.488-6.356,11.849-6.356,11.849s7.441.085,12.7-4.4,6.356-11.849,6.356-11.849S202.227,629.37,196.964,633.858Z" transform="translate(-183.474 -511.016)"/><path class="a" d="M196.031,617.4c-2.242,6.544-8.688,10.263-8.688,10.263s-2.811-6.891-.569-13.434,8.688-10.263,8.688-10.263S198.273,610.857,196.031,617.4Z" transform="translate(-180.109 -492.773)"/><path class="b" d="M350.042,277.868c-1.191-1.543-2.874-2.971-2.981-4.875-.1-1.746,1.2-3.48.655-5.151-.422-1.285-1.815-2.06-3.177-2.47a12.347,12.347,0,0,0-7.935.305l.138-.1a4.8,4.8,0,0,0-4.58,1.073,9.676,9.676,0,0,0-2.506,3.985,31.208,31.208,0,0,1-1.779,4.36,6.4,6.4,0,0,1-3.556,3.1,2.233,2.233,0,0,0,3.149.689,3.981,3.981,0,0,0,.663-.685l1.938-2.357c.665,1.182-.328,2.814.489,3.909a3.1,3.1,0,0,0,1.906.933,34.471,34.471,0,0,0,16.864-.626,1.645,1.645,0,0,0,1.11-.708A1.429,1.429,0,0,0,350.042,277.868Z" transform="translate(-279.18 -250.054)"/><path class="c" d="M424.179,326.014a3,3,0,0,0-.068.466l-12.21,7.044-2.968-1.709-3.164,4.142,4.96,3.535a2.274,2.274,0,0,0,2.728-.066l12.591-9.933a2.984,2.984,0,1,0-1.869-3.479Z" transform="translate(-337.477 -292.178)"/><path class="d" d="M396.388,344.86l-3.946,5.115a1.279,1.279,0,0,1-1.934.106l-4.468-4.639a3.552,3.552,0,1,1,4.357-5.612l5.6,3.133a1.279,1.279,0,0,1,.388,1.9Z" transform="translate(-322.373 -303.18)"/><path class="c" d="M241.287,426.419h3.485l1.658-13.441h-5.143Z" transform="translate(-172.703 -295.623)"/><path class="b" d="M403.67,668.928h6.863a4.374,4.374,0,0,1,4.373,4.373v.142H403.671Z" transform="translate(-335.975 -539.27)"/><path class="c" d="M157.287,426.419h3.485l1.658-13.441h-5.143Z" transform="translate(-112.579 -295.623)"/><path class="b" d="M319.67,668.928h6.863a4.374,4.374,0,0,1,4.373,4.373v.142H319.671Z" transform="translate(-275.852 -539.27)"/><circle class="c" cx="6.022" cy="6.022" r="6.022" transform="translate(53.861 30.586) rotate(-83.735)"/><path class="b" d="M337.4,333.391l3.548,1.758s3.964,6.889,1.69,13.427c-1.1,3.174,2,13.292,2,13.292s4.817,45.83,4.832,59.975c-5.984.92-11.669,2.057-11.953-.785s-3.4-36.45-3.4-36.45-4.279,37.3-7.69,37.871-10.233-.284-10.233-.284,5.416-54.642,9.111-58.053l.568-2.842-.015-25.514,4.257-2.032Z" transform="translate(-273.368 -299.106)"/><path class="c" d="M334.664,388.2a3.054,3.054,0,0,0,.935-4.588l4.126-27.5-5.391-.259-3.216,27.39a3.07,3.07,0,0,0,3.546,4.96Z" transform="translate(-283.328 -315.18)"/><path class="d" d="M344.261,351.876l-6.447-.407a1.279,1.279,0,0,1-1.17-1.543l1.343-6.3a3.552,3.552,0,0,1,7.089.469l.54,6.4a1.279,1.279,0,0,1-1.355,1.384Z" transform="translate(-287.98 -304.057)"/><path class="e" d="M621.494,289.249H478.92A3.924,3.924,0,0,0,475,293.173v79.439a3.924,3.924,0,0,0,3.924,3.924H621.494a3.924,3.924,0,0,0,3.924-3.924V293.173A3.924,3.924,0,0,0,621.494,289.249Z" transform="translate(-387.027 -267.511)"/><rect class="f" width="139.9" height="78.918" transform="translate(93.23 28.673)"/><circle class="f" cx="1.435" cy="1.435" r="1.435" transform="translate(161.625 23.651)"/><path class="g" d="M427.887,179.9H328V100.983Z" transform="translate(-234.766 -72.31)"/><path class="e" d="M614.291,583.275H600.638v-.984a.2.2,0,0,0-.2-.2h-4.681a.2.2,0,0,0-.2.2v.984h-2.926v-.984a.2.2,0,0,0-.2-.2h-4.681a.2.2,0,0,0-.195.2h0v.984h-2.926v-.984a.2.2,0,0,0-.195-.2h-4.681a.2.2,0,0,0-.2.2h0v.984h-2.926v-.984a.2.2,0,0,0-.2-.2h-4.681a.2.2,0,0,0-.2.2v.984H568.65v-.984a.2.2,0,0,0-.2-.2h-4.681a.2.2,0,0,0-.2.2h0v.984h-2.926v-.984a.2.2,0,0,0-.2-.2h-4.681a.2.2,0,0,0-.2.2h0v.984h-2.926v-.984a.2.2,0,0,0-.2-.2H515.793a.2.2,0,0,0-.2.2h0v.984h-2.926v-.984a.2.2,0,0,0-.2-.2H507.8a.2.2,0,0,0-.2.2h0v.984h-2.926v-.984a.2.2,0,0,0-.2-.2H499.8a.2.2,0,0,0-.2.2h0v.984h-2.926v-.984a.2.2,0,0,0-.2-.2H491.8a.2.2,0,0,0-.195.2h0v.984h-2.926v-.984a.2.2,0,0,0-.2-.2H483.8a.2.2,0,0,0-.2.2h0v.984h-2.926v-.984a.2.2,0,0,0-.2-.2h-4.681a.2.2,0,0,0-.2.2v.984h-2.926v-.984a.2.2,0,0,0-.2-.2h-4.681a.2.2,0,0,0-.2.2h0v.984h-8.972a4.681,4.681,0,0,0-4.681,4.681v2.117a4.681,4.681,0,0,0,4.681,4.681H614.291a4.681,4.681,0,0,0,4.681-4.681v-2.117a4.681,4.681,0,0,0-4.681-4.681Z" transform="translate(-371.972 -477.119)"/><path class="e" d="M729.073,549.066a3.443,3.443,0,0,1-.157.325,4.14,4.14,0,0,1-7.782-1.968v-.668h.567A14.48,14.48,0,0,0,729.073,549.066Z" transform="translate(-563.202 -451.823)"/><path class="e" d="M757.545,547.443v.473a4.138,4.138,0,0,1-7.772,1.981,3.483,3.483,0,0,1-.164-.333c.121,0,.24,0,.361,0A14.5,14.5,0,0,0,757.545,547.443Z" transform="translate(-583.584 -452.316)"/><path class="e" d="M796.2,371.56c-.124-.018-.25-.03-.376-.038a13.923,13.923,0,0,1,.277,10.4c.126-.015.25-.035.375-.058a5.223,5.223,0,0,0-.275-10.3Z" transform="translate(-616.665 -326.398)"/><path class="e" d="M693.643,371.522c-.126.008-.252.02-.376.038a5.223,5.223,0,0,0-.275,10.3c.124.023.249.043.375.058A13.924,13.924,0,0,1,693.643,371.522Z" transform="translate(-540.032 -326.398)"/><path class="e" d="M728.132,349.613a14.256,14.256,0,1,0,1.106,5.5A14.256,14.256,0,0,0,728.132,349.613Zm-.1,10.359a13.923,13.923,0,1,1,.874-4.854A13.923,13.923,0,0,1,728.033,359.972Z" transform="translate(-548.594 -304.452)"/><path class="e" d="M732.5,379.647h-14.59a2.9,2.9,0,1,0,0,5.8H732.5a2.9,2.9,0,0,0,0-5.8Z" transform="translate(-558.819 -332.214)"/><path class="e" d="M726.385,458.82q-.08-.147-.164-.288l-.005-.008a14.915,14.915,0,1,0-13.557,22.423c.157.008.316.013.476.013.066,0,.131,0,.2,0a14.812,14.812,0,0,0,7.575-2.071,15.018,15.018,0,0,0,5.793-6.225l.005-.008c.05-.1.1-.2.146-.3A14.9,14.9,0,0,0,726.385,458.82Zm.142,13.444q-.072.154-.149.3a14.692,14.692,0,0,1-5.471,5.939,14.5,14.5,0,0,1-7.575,2.125c-.121,0-.241,0-.361-.005-.052,0-.1,0-.154,0a14.589,14.589,0,1,1,13.068-22.005l.005.008c.058.094.114.191.167.287A14.57,14.57,0,0,1,726.527,472.264Z" transform="translate(-546.945 -383.379)"/><path class="e" d="M767.988,478.931a1.724,1.724,0,0,0-.995-.32h-6.521a1.713,1.713,0,0,0,0,3.425h6.521a1.689,1.689,0,0,0,.346-.035,1.876,1.876,0,0,0,.332-.1,1.712,1.712,0,0,0,.317-2.966Z" transform="translate(-590.134 -403.048)"/><circle class="h" cx="0.869" cy="0.869" r="0.869" transform="translate(169.904 76.405)"/><circle class="h" cx="0.869" cy="0.869" r="0.869" transform="translate(172.729 76.405)"/><circle class="d" cx="0.869" cy="0.869" r="0.869" transform="translate(175.555 76.405)"/><path class="f" d="M865.3,262c-2.261,1.356-6.29,3.055-10.406,1.309l-2.661-1.129,5.333-5.978A25.469,25.469,0,1,1,865.3,262Z" transform="translate(-656.129 -213.38)"/><path class="d" d="M864.6,261.605c-2.173,1.276-6.312,3.038-10.531,1.248l-3.026-1.284,5.427-6.084a25.753,25.753,0,1,1,36.548,1.965h0a25.638,25.638,0,0,1-28.417,4.154Zm29.771-40.149a25.184,25.184,0,1,0-37.31,33.838l.172.189-5.239,5.873,2.3.974c4.075,1.729,8.108-.067,10.149-1.291l.132-.079.138.067a25.184,25.184,0,0,0,29.661-39.571Z" transform="translate(-655.413 -212.665)"/><path class="i" d="M962.41,243.648A23.438,23.438,0,0,0,941.045,220.3c.681-.06,1.372-.092,2.07-.092a23.437,23.437,0,0,1,0,46.875c-.7,0-1.387-.033-2.068-.092A23.439,23.439,0,0,0,962.41,243.648Z" transform="translate(-720.606 -218.096)"/><rect class="d" width="16.747" height="1.555" transform="translate(206.863 20.878)"/><rect class="d" width="29.189" height="1.555" transform="translate(206.863 26.258)"/><rect class="d" width="29.161" height="1.555" transform="translate(206.863 31.638)"/><path class="j" d="M274.09,684.427h-108.3a.284.284,0,1,1,0-.568h108.3a.284.284,0,1,1,0,.568Z" transform="translate(-165.51 -549.956)"/><path class="b" d="M367.075,277.566a4.6,4.6,0,0,0-1.875-2.593,7.679,7.679,0,0,0-9.817.6,5.016,5.016,0,0,0-1.516,2.43,2.981,2.981,0,0,0,.635,2.714l.12.075a1.085,1.085,0,0,1,.68-1.129,5.43,5.43,0,0,1,1.387-.311,5.1,5.1,0,0,0,3.455-2.438,5.757,5.757,0,0,0,3.3,3.438c.8.311,2.982.739,3.74.344C368.15,280.19,367.309,278.631,367.075,277.566Z" transform="translate(-300.258 -256.224)"/></g></svg>