<svg xmlns="http://www.w3.org/2000/svg" width="27.14" height="27.14" viewBox="0 0 27.14 27.14">
  <path id="Path_905" data-name="Path 905" d="M15.57,14.213A6.785,6.785,0,0,1,22.355,21V29.14H8.785V21A6.785,6.785,0,0,1,15.57,14.213ZM6.462,18.292a9.476,9.476,0,0,0-.38,2.239L6.071,21V29.14H2V23.034a4.75,4.75,0,0,1,4.234-4.722l.23-.019Zm18.216,0a4.751,4.751,0,0,1,4.462,4.741V29.14H25.069V21A9.474,9.474,0,0,0,24.678,18.292ZM6.749,10.142a3.393,3.393,0,1,1-3.392,3.393,3.393,3.393,0,0,1,3.392-3.393Zm17.641,0A3.393,3.393,0,1,1,21,13.535a3.393,3.393,0,0,1,3.392-3.393ZM15.57,2a5.428,5.428,0,1,1-5.428,5.428A5.428,5.428,0,0,1,15.57,2Z" transform="translate(-2 -2)" fill="#fff"/>
</svg>
